PathFileType	4	(X/Y/Z)	walk-thru1-4-TP.trc
DataRate	CameraRate	NumFrames	NumMarkers	Units	OrigDataRate	OrigDataStartFrame	OrigNumFrames
120.00	120.00	       5	60	mm	120.00	187	       497
Frame#	Time	Top.Head			Front.Head			Rear.Head			Jaw			C7			R.Clavicle			L.Clavicle			R.Shoulder			L.Shoulder			R.Scapula			L.Scapula			R.Scap.Inf			R.Biceps.Lateral			R.Elbow			R.Elbow.Medial			R.Forearm			R.Ulna			R.Radius			R.Wrist			R.Thumb.M1			R.Thumb.M2			R.Thumb.M3			R.Finger3.M1			R.Finger3.M2			R.Finger3.M3			L.Biceps.Lateral			L.Elbow			L.Elbow.Medial			L.Forearm			L.Ulna			L.Radius			L.Wrist			L.Thumb.M1			L.Thumb.M2			L.Thumb.M3			L.Finger3.M1			L.Finger3.M2			L.Finger3.M3			V.Sacral			R.ASIS			L.ASIS			R.Thigh			R.Thigh.Front			R.Knee			R.Knee.Medial			R.Shank			R.Ankle			R.Ankle.Medial			R.Heel			R.Toe			R.MedFoot			L.Thigh			L.Knee			L.Knee.Medial			L.Shank			L.Ankle			L.Ankle.Medial			L.Heel			L.Toe			L.MedFoot			V_mid_ASIS			V_R_Knee_JC			V_L_Knee_JC			V_R_Elbow_JC			V_L_Elbow_JC			V_R_Ankle_JC			V_L_Ankle_JC			V_R_Wrist_JC			V_L_Wrist_JC			V_R_ScaTrpz_1stMC_JC			V_R_1stMC_1stPP_JC			V_R_1stPP_1stDP_JC			V_R_LunCap_3rdMC_JC			V_R_3rdMC_3rdPP_JC			V_R_3rdPP_3rdMP_JC			V_R_3rdMP_3rdDP_JC			V_L_ScaTrpz_1stMC_JC			V_L_1stMC_1stPP_JC			V_L_1stPP_1stDP_JC			V_L_LunCap_3rdMC_JC			V_L_3rdMC_3rdPP_JC			V_L_3rdPP_3rdMP_JC			V_L_3rdMP_3rdPP_JC			V_ROOT_JC			V_R_Hip_JC			V_L_Hip_JC			V_R_GlenHum_JC			V_L_GlenHum_JC			V_ForeHead_Ctr			V_Vertex			V_Sagit_Lambdoid_Suture			V_R_FrontoTemp			V_L_FrontoTemporal			V_R_ParietalOccip			V_L_ParietalOcciptal			V_R_Temporal			V_L_Temporal			V_mid_FrontRearHead			V_mid_RLGlenHumCtrs			V_C7_vert			V_C1_vert			V_Mid_Hip			
		X1	Y1	Z1	X2	Y2	Z2	X3	Y3	Z3	X4	Y4	Z4	X5	Y5	Z5	X6	Y6	Z6	X7	Y7	Z7	X8	Y8	Z8	X9	Y9	Z9	X10	Y10	Z10	X11	Y11	Z11	X12	Y12	Z12	X13	Y13	Z13	X14	Y14	Z14	X15	Y15	Z15	X16	Y16	Z16	X17	Y17	Z17	X18	Y18	Z18	X19	Y19	Z19	X20	Y20	Z20	X21	Y21	Z21	X22	Y22	Z22	X23	Y23	Z23	X24	Y24	Z24	X25	Y25	Z25	X26	Y26	Z26	X27	Y27	Z27	X28	Y28	Z28	X29	Y29	Z29	X30	Y30	Z30	X31	Y31	Z31	X32	Y32	Z32	X33	Y33	Z33	X34	Y34	Z34	X35	Y35	Z35	X36	Y36	Z36	X37	Y37	Z37	X38	Y38	Z38	X39	Y39	Z39	X40	Y40	Z40	X41	Y41	Z41	X42	Y42	Z42	X43	Y43	Z43	X44	Y44	Z44	X45	Y45	Z45	X46	Y46	Z46	X47	Y47	Z47	X48	Y48	Z48	X49	Y49	Z49	X50	Y50	Z50	X51	Y51	Z51	X52	Y52	Z52	X53	Y53	Z53	X54	Y54	Z54	X55	Y55	Z55	X56	Y56	Z56	X57	Y57	Z57	X58	Y58	Z58	X59	Y59	Z59	X60	Y60	Z60	

187	1.550	297.35684	64.09846	1549.92297	400.41022	54.93198	1451.78674	187.88339	62.69562	1467.96814	371.75357	39.99264	1310.87244	170.70724	44.64667	1357.89832	249.10828	-69.07328	1269.10120	275.94263	141.67686	1275.93225	195.73901	-144.26115	1264.64465	231.86818	239.16920	1274.07068	119.90710	-38.67046	1279.84302	131.04575	144.68661	1278.46680	76.07095	-20.01288	1196.68445	222.08418	-199.10655	1125.35181	204.23604	-224.16711	963.70990	181.16399	-154.02238	942.88391	289.95844	-222.49342	899.63422	273.28006	-249.76112	812.63892	344.91339	-209.05499	774.51770	344.76508	-250.76027	742.14465	377.93835	-213.93297	728.68536	394.69281	-197.04872	697.76880	410.87317	-186.30527	660.51508	375.71759	-266.57150	671.27087	383.14188	-247.13980	622.25366	378.67490	-228.57701	585.04846	218.27206	300.64282	1129.33728	172.52455	313.01123	983.98840	149.73140	236.02469	975.22345	260.75864	290.65759	924.86414	257.74182	327.39523	833.08618	308.47388	266.99786	795.51996	324.21939	315.49802	771.67889	343.96167	272.29095	764.24548	360.12430	248.22360	730.88501	368.87857	245.86507	676.59039	359.63721	314.99539	693.02960	369.66507	310.37851	655.39563	371.28149	292.91956	612.86462	76.18080	57.43512	891.97260	257.92709	-119.62165	954.62018	272.84702	200.43121	940.82117	220.17366	-146.32727	563.78485	272.55344	-81.03910	461.44403	207.99721	-110.07761	419.54086	226.12459	-1.92476	415.40283	133.22563	-52.34200	262.47165	-29.30921	-52.63341	102.25095	-2.07176	34.65845	118.40220	-88.80518	6.50110	103.46422	95.07477	-32.54231	38.79523	55.89427	7.37264	77.78955	351.05853	227.96754	580.94781	411.08081	193.33479	452.18240	430.20132	76.22347	445.93466	426.17255	127.60680	259.08173	367.60327	143.21837	65.56597	380.99603	52.58820	88.03516	310.69595	93.00064	42.97259	514.95172	106.51888	44.88587	457.42566	73.34798	65.10719																																																																																																																															
188	1.558	304.36234	64.87032	1551.55444	406.01392	56.19319	1452.60596	192.94650	63.25439	1468.89990	378.29901	41.44614	1312.04993	177.20380	44.96369	1358.06372	255.78175	-68.71333	1270.82800	281.12881	142.98743	1276.55811	201.87465	-142.94632	1265.99805	238.04369	240.97575	1275.21155	125.96310	-37.84179	1280.57117	136.67331	145.03072	1280.40295	82.45712	-17.54477	1197.77856	227.40308	-198.64386	1127.00134	207.74789	-223.93451	965.82562	185.03848	-152.54485	945.07037	294.13260	-221.62221	900.47803	275.53156	-249.05469	813.22943	347.36807	-208.16772	775.19611	347.21948	-249.77159	742.23523	379.57169	-213.40486	728.90179	396.41904	-197.14503	697.67151	412.35236	-186.25839	659.70453	376.74597	-266.16516	670.97980	384.34891	-246.60753	621.79645	379.02295	-227.98146	585.12427	224.27322	300.98004	1130.08887	178.07397	313.90216	985.09070	155.70723	235.05479	976.76184	267.89069	291.34802	925.76788	264.89117	328.47388	834.61115	315.87027	267.68927	796.81799	329.97675	317.29083	772.81128	350.23663	274.41501	765.14130	366.44553	249.27428	731.30908	375.48312	247.16502	677.64020	365.73926	316.28616	694.10297	377.62021	310.01111	656.45135	380.13046	291.71579	615.06073	81.79123	58.86352	892.63007	263.53073	-118.33550	955.66241	278.37234	201.50922	942.24756	227.88907	-146.25005	564.42371	281.06305	-81.63507	462.12955	216.15070	-110.97337	419.88632	234.93086	-2.42695	415.54147	139.71198	-53.51815	264.01419	-25.62935	-53.52176	106.64277	2.26802	34.23522	122.04855	-85.82767	5.67647	109.43677	95.39634	-32.33493	39.01886	58.05790	6.50106	78.91618	355.61292	229.47482	582.53528	411.54169	194.08530	451.88602	433.56046	76.81966	445.69086	427.16055	127.52447	258.81949	367.87512	143.54590	65.50688	381.11197	52.37993	88.03244	310.97830	92.90605	43.12492	514.81873	106.13956	43.84711	457.64035	73.24818	65.04597																																																																																																																															
189	1.567	309.63275	66.31500	1552.79187	412.15128	57.68076	1453.84863	199.26186	63.92883	1469.96753	383.51791	41.64359	1313.44275	183.71060	47.34512	1359.56592	261.95013	-67.30629	1271.34485	287.44016	144.35538	1277.80261	207.79898	-141.79919	1267.18909	244.26247	242.44304	1276.04041	131.64845	-35.50439	1282.41113	142.20007	145.11351	1281.60327	87.98817	-17.15196	1199.00354	232.79416	-197.13181	1128.11084	211.90234	-221.80920	967.17407	190.10516	-149.89742	946.64429	297.45459	-220.87407	901.35089	278.31943	-248.31404	814.31519	350.06177	-206.87437	775.01410	348.63940	-249.09554	742.60565	382.10349	-213.25987	728.43372	398.13116	-196.01744	697.49048	413.59381	-185.57202	659.15027	377.78220	-265.66586	671.03613	385.06604	-246.43379	621.43597	379.10858	-227.84581	585.17383	230.27817	302.38968	1130.95654	185.65425	315.14795	986.81757	162.40483	236.54274	976.90863	273.61295	292.23187	927.43402	270.54477	329.51089	835.87817	323.28928	268.82092	798.65973	336.57343	317.43164	773.61017	356.18109	273.22464	766.84418	373.58792	250.46968	732.26544	380.79382	247.70502	678.02637	372.65607	314.78253	695.88617	383.03409	309.31439	657.44312	386.01486	292.77188	615.40704	87.59045	59.23527	894.15570	269.07449	-116.80661	956.72638	284.11365	202.36807	944.09534	236.37099	-145.90952	565.64471	289.60129	-83.05322	463.20129	224.53456	-112.11224	420.21140	245.11420	-3.44125	415.77979	145.65858	-54.64806	265.05569	-22.95454	-54.25137	110.99391	7.64332	32.55433	125.69781	-81.60972	5.40857	115.58566	96.30089	-31.94454	39.07083	60.95092	5.80789	79.79107	358.40405	229.52901	582.41797	412.23669	194.70961	451.56622	435.07834	78.84502	445.27151	427.70242	127.67537	258.60062	367.87512	143.54590	65.50688	381.46783	52.25966	87.82113	311.22330	93.09085	43.20747	514.78455	105.64347	42.70023	457.63385	73.36038	64.97703																																																																																																																															
190	1.575	316.17920	66.96147	1553.47229	418.26743	59.03286	1455.03455	205.56046	65.22715	1470.58337	389.93961	42.92306	1314.63220	189.46608	48.50430	1361.38098	267.52740	-66.94135	1273.51794	293.79083	145.91533	1279.06152	213.09610	-140.35986	1268.75244	251.04697	242.86995	1278.02380	137.36484	-33.83424	1283.66187	148.60699	147.49594	1282.69238	94.17233	-15.39086	1200.35303	237.19406	-196.63963	1129.64331	215.34914	-221.45088	968.47119	193.26065	-150.23187	948.24731	300.11829	-220.55418	902.27234	280.46643	-246.71953	815.43323	351.87146	-207.19899	775.10571	350.31421	-248.99576	742.89587	383.88837	-213.38329	728.52454	399.46051	-195.63683	697.11896	414.77216	-185.45322	658.86938	378.46017	-265.21973	671.09900	385.90604	-245.87209	621.29047	379.45767	-227.26024	585.14948	237.83705	303.21317	1131.72595	191.39111	316.59641	987.68103	169.56000	238.02231	977.79449	280.62537	292.76086	928.28363	278.97745	329.63150	837.43811	330.51917	270.09421	801.85034	343.44540	317.44601	775.15082	362.44220	272.66476	768.30731	379.28360	250.46539	734.79907	385.83752	248.24390	678.90112	379.01859	314.90411	695.88824	390.96365	308.83881	658.74725	392.14511	292.81796	615.78516	94.03989	60.08446	895.04095	275.43176	-115.68343	957.99493	290.58469	204.01880	945.61292	244.29660	-145.98814	566.29620	298.39999	-84.16153	463.47580	234.41161	-112.13119	420.86588	254.31784	-3.69662	416.20468	152.75462	-54.48442	266.91403	-18.07285	-54.97335	115.06316	12.04614	31.63244	129.44389	-77.25014	5.49636	122.64776	97.14245	-31.81709	39.70612	63.70600	4.68701	81.67936	361.16995	231.14659	582.92230	412.86465	195.09464	451.26175	437.59277	79.41199	445.28156	429.13950	127.20770	258.32129	368.04050	143.55779	65.64822	381.62485	52.23231	87.77808	311.22330	93.09085	43.20747	514.75739	105.45014	42.39738	457.65952	73.51775	64.83454																																																																																																																															
191	1.583	322.29492	68.82594	1555.22058	424.16742	60.38193	1455.98621	211.18030	66.66071	1473.09253	395.97839	44.77581	1316.16345	196.21822	50.03123	1361.86841	272.66840	-65.52440	1274.68494	300.63351	146.83676	1279.90710	218.40897	-139.04762	1270.58521	256.78427	244.64212	1278.68909	144.36044	-32.56824	1284.87952	154.37863	149.28999	1283.61267	100.08743	-13.52717	1202.01099	241.81799	-195.04303	1130.92139	219.01474	-219.42805	970.16144	197.72882	-147.84380	950.05481	303.90253	-220.08554	902.98267	282.26520	-245.82254	816.19098	354.52933	-206.55682	776.04218	351.66592	-248.34154	742.89276	385.26700	-212.57242	728.65540	401.71646	-195.33084	696.91724	416.58353	-185.36740	658.74133	379.25809	-264.37076	671.12512	385.90604	-245.87209	621.29047	379.65701	-227.07466	585.43408	243.46863	304.20016	1132.80872	198.30588	317.61380	989.25482	174.74149	239.11919	979.18408	287.08774	294.94528	930.68262	285.73712	331.96091	838.61847	336.30963	270.62756	802.61469	351.01041	318.69040	777.45868	371.95810	274.14032	771.35052	385.23920	250.30180	735.63239	390.56500	248.10129	680.35797	386.52917	314.59744	696.89404	396.47888	308.98883	660.05103	397.91464	290.66608	617.18927	99.64078	61.65012	895.68811	280.63626	-114.76559	959.25256	296.52628	204.91391	946.49902	252.19312	-147.39380	567.68488	307.81592	-85.56010	465.32584	243.25592	-113.29932	421.68179	264.15402	-4.54142	416.40549	159.80681	-56.10680	268.87598	-13.57213	-55.20678	120.60592	16.49810	30.90559	133.15213	-71.85478	4.94720	130.29276	97.69328	-32.00573	39.89275	66.85483	4.43925	83.11191	364.25467	230.51093	582.81189	413.60571	194.91838	451.20462	438.50964	79.23250	445.12241	429.83054	126.83651	258.14896	367.93848	143.09428	65.26959	381.62485	52.23231	87.77808	311.09738	92.90789	43.36648	515.26447	105.94708	42.70053	457.68524	73.41283	64.58812																																																																																																																															
